<svg width="43" height="69" viewBox="0 0 43 69" fill="none" xmlns="http://www.w3.org/2000/svg">
<g clip-path="url(#clip0)">
<path d="M42.2219 28.0907C42.2219 19.9127 35.5929 13.2837 27.4149 13.2837C19.2369 13.2837 12.6079 19.9127 12.6079 28.0907C12.6079 30.2617 13.0869 32.3177 13.9269 34.1757H13.9129L27.8949 68.1927L40.9159 34.1757H40.9029C41.7429 32.3177 42.2219 30.2617 42.2219 28.0907Z" fill="#FFBF00"/>
<path d="M27.4149 33.4607C30.3807 33.4607 32.7849 31.0565 32.7849 28.0907C32.7849 25.1249 30.3807 22.7207 27.4149 22.7207C24.4492 22.7207 22.0449 25.1249 22.0449 28.0907C22.0449 31.0565 24.4492 33.4607 27.4149 33.4607Z" fill="white"/>
<path d="M13.0271 23.7531L30.6081 13.9731L25.8281 5.78711L8.57715 15.7311L13.0271 23.7531Z" fill="#424242" stroke="#2D2D2D" stroke-width="1.0118" stroke-miterlimit="10"/>
<path d="M19.144 15.0719L2.00195 16.6839L12.038 3.79087L29.546 0.713867L19.144 15.0719Z" fill="#424242" stroke="#2D2D2D" stroke-width="1.0118" stroke-miterlimit="10"/>
<path d="M2.00195 16.6841V22.1051" stroke="#2D2D2D" stroke-width="0.6745" stroke-miterlimit="10"/>
<path d="M2.00195 23.0327L0.418945 30.3037H3.58595L2.00195 23.0327Z" fill="#424242" stroke="#2D2D2D" stroke-width="0.6745" stroke-miterlimit="10"/>
<path d="M2.00187 25.2908C2.85128 25.2908 3.53987 24.6023 3.53987 23.7528C3.53987 22.9034 2.85128 22.2148 2.00187 22.2148C1.15245 22.2148 0.463867 22.9034 0.463867 23.7528C0.463867 24.6023 1.15245 25.2908 2.00187 25.2908Z" fill="#424242" stroke="#2D2D2D" stroke-width="0.6745" stroke-miterlimit="10"/>
</g>
<defs>
<clipPath id="clip0">
<rect width="42.222" height="68.193" fill="white"/>
</clipPath>
</defs>
</svg>
